<?xml version="1.0" encoding="utf-8"?>
<!-- Generator: Adobe Illustrator 19.0.0, SVG Export Plug-In . SVG Version: 6.00 Build 0)  -->
<svg version="1.1" id="Capa_1" xmlns="http://www.w3.org/2000/svg" xmlns:xlink="http://www.w3.org/1999/xlink" x="0px" y="0px"
	 viewBox="170 -170.4 490.4 490.4" style="enable-background:new 170 -170.4 490.4 490.4;" xml:space="preserve">
<style type="text/css">
	.st0{fill:#E0E4E9;}
</style>
<g>
	<g>
		<path class="st0" d="M415.2,320c135.2,0,245.2-110,245.2-245.2s-110-245.2-245.2-245.2S170-60.4,170,74.8S280,320,415.2,320z
			 M415.2-145.9c121.7,0,220.7,99,220.7,220.7s-99,220.7-220.7,220.7s-220.7-99-220.7-220.7S293.5-145.9,415.2-145.9z"/>
		<path class="st0" d="M350.3,139.7c2.4,2.4,5.5,3.6,8.7,3.6s6.3-1.2,8.7-3.6l47.6-47.6l47.6,47.6c2.4,2.4,5.5,3.6,8.7,3.6
			s6.3-1.2,8.7-3.6c4.8-4.8,4.8-12.5,0-17.3l-47.8-47.6l47.6-47.6c4.8-4.8,4.8-12.5,0-17.3s-12.5-4.8-17.3,0l-47.6,47.6L367.6,9.9
			c-4.8-4.8-12.5-4.8-17.3,0c-4.8,4.8-4.8,12.5,0,17.3l47.6,47.6l-47.6,47.6C345.5,127.2,345.5,134.9,350.3,139.7z"/>
	</g>
</g>
</svg>
