<?xml version="1.0" encoding="utf-8"?>
<!-- Generator: Adobe Illustrator 19.0.0, SVG Export Plug-In . SVG Version: 6.00 Build 0)  -->
<svg version="1.1" id="Layer_1" xmlns="http://www.w3.org/2000/svg" xmlns:xlink="http://www.w3.org/1999/xlink" x="0px" y="0px"
	 viewBox="-66 68 16 16" style="enable-background:new -66 68 16 16;" xml:space="preserve">
<style type="text/css">
	.st0{fill:url(#SVGID_1_);}
</style>
<linearGradient id="SVGID_1_" gradientUnits="userSpaceOnUse" x1="-62.9784" y1="74.0072" x2="-52.2663" y2="77.9061">
	<stop  offset="1.212284e-03" style="stop-color:#FF7854"/>
	<stop  offset="0.9976" style="stop-color:#FD267D"/>
</linearGradient>
<path class="st0" d="M-60,69v7h-3c-0.5,0-1,0.4-1,1c0,0.5,0.3,0.7,0.5,1l4.5,5.4c0.3,0.4,0.6,0.6,1,0.6s0.7-0.2,1-0.6l4.5-5.4
	c0.3-0.3,0.5-0.5,0.5-1c0-0.6-0.5-1-1-1h-3v-7c0-0.6-0.5-1-1-1h-2C-59.5,68-60,68.4-60,69z"/>
</svg>
