<?xml version="1.0" encoding="utf-8"?>
<!-- Generator: Adobe Illustrator 19.0.0, SVG Export Plug-In . SVG Version: 6.00 Build 0)  -->
<svg version="1.1" id="Ebene_2" xmlns="http://www.w3.org/2000/svg" xmlns:xlink="http://www.w3.org/1999/xlink" x="0px" y="0px"
	 viewBox="0 0 413.7 81" style="enable-background:new 0 0 413.7 81;" xml:space="preserve">
<g id="XMLID_5_">
	<path id="XMLID_6_" d="M131.2,20.4v7.8h-20.4V38h17.6v7.2h-17.6v17.4h-9.3V20.4H131.2z"/>
	<path id="XMLID_8_" d="M134.6,40.7c0.7-2,1.8-3.7,3.2-5.1c1.4-1.4,3-2.5,5-3.2c1.9-0.8,4.1-1.2,6.5-1.2c2.4,0,4.6,0.4,6.5,1.2
		c1.9,0.8,3.6,1.8,5,3.2c1.4,1.4,2.4,3.1,3.2,5.1c0.7,2,1.1,4.2,1.1,6.6c0,2.4-0.4,4.6-1.1,6.6c-0.7,2-1.8,3.6-3.2,5
		c-1.4,1.4-3,2.5-5,3.2c-1.9,0.7-4.1,1.1-6.5,1.1c-2.4,0-4.6-0.4-6.5-1.1c-1.9-0.7-3.6-1.8-5-3.2c-1.4-1.4-2.4-3.1-3.2-5
		c-0.7-2-1.1-4.2-1.1-6.6C133.5,44.9,133.9,42.7,134.6,40.7z M142.2,50.9c0.2,1.2,0.6,2.2,1.2,3.1c0.6,0.9,1.3,1.7,2.3,2.2
		c0.9,0.6,2.1,0.8,3.5,0.8s2.6-0.3,3.6-0.8c1-0.6,1.7-1.3,2.3-2.2c0.6-0.9,1-2,1.2-3.1c0.2-1.2,0.4-2.4,0.4-3.6
		c0-1.2-0.1-2.4-0.4-3.6c-0.2-1.2-0.6-2.2-1.2-3.1c-0.6-0.9-1.3-1.6-2.3-2.2c-1-0.6-2.2-0.9-3.6-0.9s-2.6,0.3-3.5,0.9
		c-0.9,0.6-1.7,1.3-2.3,2.2c-0.6,0.9-1,1.9-1.2,3.1c-0.2,1.2-0.4,2.4-0.4,3.6C141.9,48.6,142,49.8,142.2,50.9z"/>
	<path id="XMLID_11_" d="M169.4,40.7c0.7-2,1.8-3.7,3.2-5.1c1.4-1.4,3-2.5,5-3.2c1.9-0.8,4.1-1.2,6.5-1.2c2.4,0,4.6,0.4,6.5,1.2
		c1.9,0.8,3.6,1.8,5,3.2c1.4,1.4,2.4,3.1,3.2,5.1c0.7,2,1.1,4.2,1.1,6.6c0,2.4-0.4,4.6-1.1,6.6c-0.7,2-1.8,3.6-3.2,5
		c-1.4,1.4-3,2.5-5,3.2c-1.9,0.7-4.1,1.1-6.5,1.1c-2.4,0-4.6-0.4-6.5-1.1c-1.9-0.7-3.6-1.8-5-3.2c-1.4-1.4-2.4-3.1-3.2-5
		c-0.7-2-1.1-4.2-1.1-6.6C168.3,44.9,168.7,42.7,169.4,40.7z M177,50.9c0.2,1.2,0.6,2.2,1.2,3.1c0.6,0.9,1.3,1.7,2.3,2.2
		c0.9,0.6,2.1,0.8,3.5,0.8s2.6-0.3,3.6-0.8c1-0.6,1.7-1.3,2.3-2.2c0.6-0.9,1-2,1.2-3.1c0.2-1.2,0.4-2.4,0.4-3.6
		c0-1.2-0.1-2.4-0.4-3.6c-0.2-1.2-0.6-2.2-1.2-3.1c-0.6-0.9-1.3-1.6-2.3-2.2c-1-0.6-2.2-0.9-3.6-0.9s-2.6,0.3-3.5,0.9
		c-0.9,0.6-1.7,1.3-2.3,2.2c-0.6,0.9-1,1.9-1.2,3.1c-0.2,1.2-0.4,2.4-0.4,3.6C176.7,48.6,176.8,49.8,177,50.9z"/>
	<path id="XMLID_14_" d="M225.7,58.7c-1,1.7-2.3,2.8-3.9,3.6c-1.6,0.7-3.4,1.1-5.4,1.1c-2.3,0-4.3-0.4-6-1.3
		c-1.7-0.9-3.2-2.1-4.3-3.6c-1.1-1.5-2-3.3-2.5-5.2c-0.6-2-0.9-4-0.9-6.1c0-2,0.3-4,0.9-5.9c0.6-1.9,1.4-3.6,2.5-5
		c1.1-1.5,2.5-2.6,4.2-3.5c1.7-0.9,3.7-1.3,5.9-1.3c1.8,0,3.5,0.4,5.2,1.2c1.6,0.8,2.9,1.9,3.9,3.4h0.1V20.4h8.4v42.1h-8v-3.9H225.7
		z M225.4,43.6c-0.2-1.2-0.6-2.2-1.2-3.1c-0.6-0.9-1.3-1.6-2.2-2.2c-0.9-0.6-2-0.8-3.4-0.8c-1.4,0-2.5,0.3-3.5,0.8
		c-0.9,0.6-1.7,1.3-2.3,2.2c-0.6,0.9-1,1.9-1.2,3.1c-0.3,1.2-0.4,2.4-0.4,3.6c0,1.2,0.1,2.4,0.4,3.5c0.3,1.2,0.7,2.2,1.3,3.2
		c0.6,0.9,1.4,1.7,2.3,2.2c0.9,0.6,2,0.9,3.3,0.9c1.4,0,2.5-0.3,3.5-0.8c0.9-0.6,1.7-1.3,2.2-2.2c0.6-0.9,0.9-2,1.2-3.2
		c0.2-1.2,0.4-2.4,0.4-3.7C225.7,46,225.6,44.8,225.4,43.6z"/>
	<path id="XMLID_17_" d="M246.8,52.2c0.5,1,1.2,1.8,2,2.4c0.8,0.6,1.8,1.1,3,1.4c1.1,0.3,2.3,0.4,3.5,0.4c0.8,0,1.7-0.1,2.7-0.2
		c0.9-0.1,1.8-0.4,2.7-0.8c0.8-0.4,1.5-0.9,2.1-1.6c0.6-0.7,0.8-1.6,0.8-2.6c0-1.1-0.4-2.1-1.1-2.8c-0.7-0.7-1.7-1.3-2.9-1.8
		c-1.2-0.5-2.5-0.9-4-1.2c-1.5-0.4-3-0.7-4.5-1.2c-1.6-0.4-3.1-0.9-4.6-1.4c-1.5-0.6-2.8-1.3-4-2.2c-1.2-0.9-2.1-2-2.9-3.4
		c-0.7-1.4-1.1-3-1.1-4.9c0-2.2,0.5-4,1.4-5.6c0.9-1.6,2.1-2.9,3.6-4c1.5-1.1,3.2-1.8,5.1-2.4c1.9-0.5,3.8-0.8,5.7-0.8
		c2.2,0,4.3,0.2,6.3,0.7c2,0.5,3.8,1.3,5.4,2.4c1.6,1.1,2.8,2.5,3.7,4.2c0.9,1.7,1.4,3.8,1.4,6.2h-9c-0.1-1.3-0.3-2.3-0.8-3.1
		c-0.5-0.8-1.1-1.5-1.8-1.9c-0.7-0.5-1.6-0.8-2.6-1c-1-0.2-2-0.3-3.2-0.3c-0.7,0-1.5,0.1-2.2,0.2c-0.7,0.2-1.4,0.4-2,0.8
		c-0.6,0.4-1.1,0.9-1.5,1.5c-0.4,0.6-0.6,1.3-0.6,2.2c0,0.8,0.2,1.5,0.5,2c0.3,0.5,0.9,1,1.9,1.4c0.9,0.4,2.2,0.9,3.8,1.3
		c1.6,0.4,3.8,1,6.4,1.7c0.8,0.2,1.9,0.4,3.3,0.9c1.4,0.4,2.8,1.1,4.2,2c1.4,0.9,2.6,2.1,3.6,3.6c1,1.5,1.5,3.5,1.5,5.8
		c0,1.9-0.4,3.7-1.1,5.4c-0.7,1.7-1.9,3.1-3.3,4.3c-1.5,1.2-3.3,2.1-5.5,2.8s-4.7,1-7.6,1c-2.3,0-4.6-0.3-6.8-0.9
		c-2.2-0.6-4.1-1.5-5.8-2.7c-1.7-1.2-3-2.8-4-4.7c-1-1.9-1.5-4.1-1.4-6.7h9C246.1,50,246.3,51.2,246.8,52.2z"/>
	<path id="XMLID_19_" d="M302.2,62.6l-5.4-20.5h-0.1l-5.2,20.5h-8.7l-9.7-30.5h8.9l5.6,20.7h0.1l5.1-20.7h8.1l5.2,20.6h0.1l5.6-20.6
		h8.6l-9.6,30.5H302.2z"/>
	<path id="XMLID_21_" d="M322.9,27.3v-6.9h8.4v6.9H322.9z M331.3,32.1v30.5h-8.4V32.1H331.3z"/>
	<path id="XMLID_24_" d="M344.7,32.1V36h0.1c1-1.7,2.3-2.9,3.9-3.6c1.6-0.7,3.3-1.1,5.2-1.1c2.4,0,4.5,0.5,6.2,1.4
		c1.7,0.9,3.2,2.1,4.3,3.6c1.1,1.5,2,3.2,2.5,5.2c0.6,2,0.8,4.1,0.8,6.2c0,2-0.3,4-0.8,5.9c-0.6,1.9-1.4,3.6-2.5,5
		c-1.1,1.5-2.5,2.6-4.2,3.5c-1.7,0.9-3.6,1.3-5.9,1.3c-1.9,0-3.6-0.4-5.2-1.2c-1.6-0.8-2.9-1.9-3.9-3.4h-0.1v14.5h-8.4V32.1H344.7z
		 M355.5,56.3c0.9-0.6,1.7-1.3,2.2-2.2c0.6-0.9,1-1.9,1.2-3.1c0.2-1.2,0.4-2.4,0.4-3.6c0-1.2-0.1-2.4-0.4-3.6
		c-0.3-1.2-0.7-2.2-1.3-3.2c-0.6-0.9-1.3-1.7-2.3-2.2c-0.9-0.6-2.1-0.9-3.4-0.9c-1.4,0-2.5,0.3-3.5,0.9c-0.9,0.6-1.7,1.3-2.2,2.2
		c-0.6,0.9-1,1.9-1.2,3.1c-0.2,1.2-0.4,2.4-0.4,3.7c0,1.2,0.1,2.4,0.4,3.6s0.7,2.2,1.2,3.1c0.6,0.9,1.3,1.6,2.3,2.2
		c0.9,0.6,2.1,0.8,3.4,0.8C353.5,57.1,354.6,56.8,355.5,56.3z"/>
	<path id="XMLID_27_" d="M380.5,55.3c1.3,1.2,3.1,1.8,5.4,1.8c1.7,0,3.1-0.4,4.4-1.3c1.2-0.8,2-1.7,2.2-2.7h7.4
		c-1.2,3.7-3,6.3-5.4,7.8c-2.4,1.6-5.4,2.4-8.8,2.4c-2.4,0-4.6-0.4-6.5-1.2c-1.9-0.8-3.6-1.9-4.9-3.3c-1.3-1.4-2.4-3.1-3.1-5.1
		c-0.7-2-1.1-4.1-1.1-6.5c0-2.3,0.4-4.4,1.1-6.4c0.7-2,1.8-3.7,3.2-5.1c1.4-1.4,3-2.6,4.9-3.4c1.9-0.8,4-1.2,6.3-1.2
		c2.6,0,4.9,0.5,6.8,1.5c1.9,1,3.5,2.4,4.7,4c1.2,1.7,2.1,3.6,2.7,5.8c0.6,2.2,0.7,4.4,0.6,6.8h-22C378.5,52.1,379.2,54,380.5,55.3z
		 M389.9,39.2c-1-1.1-2.5-1.7-4.6-1.7c-1.3,0-2.4,0.2-3.3,0.7c-0.9,0.5-1.6,1-2.1,1.7c-0.5,0.7-0.9,1.4-1.1,2.1
		c-0.2,0.7-0.3,1.4-0.4,2H392C391.6,41.9,390.9,40.3,389.9,39.2z"/>
	<path id="XMLID_30_" d="M413.7,53.5v9.1h-9.3v-9.1H413.7z"/>
</g>
<g id="XMLID_99_">
	<g id="XMLID_107_">
		<path id="XMLID_109_" d="M0,67.7c0,0,6.9,6.5,14.5-0.2s15.4,0.2,15.2,5.2C29.5,79.7,12.7,89.3,0,67.7z"/>
		<path id="XMLID_108_" d="M59,67.7c0,0-6.9,6.5-14.5-0.2s-15.4,0.2-15.2,5.2C29.5,79.7,46.3,89.3,59,67.7z"/>
	</g>
	<g id="XMLID_100_">
		<rect id="XMLID_97_" x="9" y="51.5" width="41" height="7"/>
		<path id="XMLID_96_" d="M59.8,20.5c0-7-5.7-12.7-12.7-12.7c-1.9,0-3.8,0.4-5.4,1.2c-1.6-5.2-6.4-9-12.1-9S19,3.8,17.4,9
			c-1.6-0.8-3.5-1.2-5.4-1.2c-7,0-12.7,5.7-12.7,12.7c0,6,4.7,11,9.7,12.3v15.7h41V32.8C54,31.5,59.8,26.5,59.8,20.5z"/>
	</g>
</g>
</svg>
